# xmcd
#
# Track frame offsets:
#	150
#	4911
#	14917
#	31547
#	40658
#	46847
#	56319
#	73406
#	81272
#	92302
#	103423
#	119220
#	130861
#	135495
#	142698
#	161721
#	170225
#
# Disc length: 2423 seconds
#
# Revision: 0
# Processed by: cddbd v1.5.2PL0 Copyright (c) Steve Scherf et al.
# Submitted via: EasyCDDAExtractor 2011.3.0.0
#
DISCID=e8097511
DTITLE=Dave Ray - Snaker's Here! - Blues and Hollers
DYEAR=1965
DGENRE=blues
TTITLE0=Dave Ray - Julie and Johnson
TTITLE1=Dave Ray - Go My Bail
TTITLE2=Dave Ray and Tony Glover - Rock Me
TTITLE3=Dave Ray - Bull Frog Blues
TTITLE4=Dave Ray - Old Country Rock
TTITLE5=Dave Ray and Tony Glover - Rambling on My Mind
TTITLE6=Dave Ray - Broke Down Engine
TTITLE7=Dave Ray - Blind Lemon
TTITLE8=Dave Ray and Tony Glover - Last Fair Deal Done Gone
TTITLE9=Dave Ray - saddle Up My Pony
TTITLE10=Dave Ray and Tony Glover - Brownsville Blues
TTITLE11=Dave Ray - Becky Dean
TTITLE12=Dave Ray - Yellow Woman's Door
TTITLE13=Dave Ray - Killing Me by Degrees
TTITLE14=Dave Ray - 'fore Day Worry Blues
TTITLE15=Dave Ray - Rising Sun Blues
TTITLE16=Dave Ray and Tony Glover - Need My Help Some Day
EXTD=
EXTT0=
EXTT1=
EXTT2=
EXTT3=
EXTT4=
EXTT5=
EXTT6=
EXTT7=
EXTT8=
EXTT9=
EXTT10=
EXTT11=
EXTT12=
EXTT13=
EXTT14=
EXTT15=
EXTT16=
PLAYORDER=
